[img]http://img708.imageshack.us/img708/444/theawake.jpg[/img]
[code]
The Awakening 2011 720p CAM XviD-26K

Imdb: 
http://www.imdb.com/title/tt1687901/

Plot:
1921 England is overwhelmed by the loss and grief of World War I. Hoax exposer Florence Cathcart visits a boarding school to explain sightings of a child ghost. Everything she knew in unravels as the 'missing' begin to show themselves.

Sources:
thnxs m8 for video + audio!

Notes:
source was great has bit of flicker and is dark usaul problems for a hd cam :P :) 
had errors when adding filters to source so f it will do v2 of this :P here is first cam enjoy.. dont want it dont comment...

Greetz:
Xtreme Encode|FYA|ILLUMANTI|CM8|RX|VISION|HDSCENE|NIGHTMAREZ|xTriLL|DTRG|CRYS|REMIXHD|BIDA|RX|REFILL| INSPiRAL|SIC
To all the people who have helped me :P you know who you are

Anything to offer email us @: 26k@hushmail.me

Video
ID                                       : 0
Format                                   : MPEG-4 Visual
Format profile                           : Advanced Simple@L5
Format settings, BVOP                    : 2
Format settings, QPel                    : No
Format settings, GMC                     : No warppoints
Format settings, Matrix                  : Default (H.263)
Codec ID                                 : XVID
Codec ID/Hint                            : XviD
Duration                                 : 1h 42mn
Bit rate                                 : 2 797 Kbps
Width                                    : 1 280 pixels
Height                                   : 544 pixels
Display aspect ratio                     : 2.35:1
Frame rate                               : 25.000 fps
Color space                              : YUV
Chroma subsampling                       : 4:2:0
Bit depth                                : 8 bits
Scan type                                : Progressive
Compression mode                         : Lossy
Bits/(Pixel*Frame)                       : 0.161
Stream size                              : 2.00 GiB (95%)
Writing library                          : XviD 63

Audio
ID                                       : 1
Format                                   : MPEG Audio
Format version                           : Version 1
Format profile                           : Layer 3
Mode                                     : Joint stereo
Mode extension                           : MS Stereo
Codec ID                                 : 55
Codec ID/Hint                            : MP3
Duration                                 : 1h 41mn
Bit rate mode                            : Constant
Bit rate                                 : 128 Kbps
Channel(s)                               : 2 channels
Sampling rate                            : 48.0 KHz
Compression mode                         : Lossy
Stream size                              : 93.6 MiB (4%)
Alignment                                : Aligned on interleaves
Interleave, duration                     : 40 ms (1.00 video frame)

[/code]
Screens:
[img]http://img80.imageshack.us/img80/8634/vlcsnap2012010713h01m16.png[/img]
[img]http://img585.imageshack.us/img585/9018/vlcsnap2012010713h01m26.png[/img]
[img]http://img408.imageshack.us/img408/650/vlcsnap2012010713h01m34.png[/img]
[img]http://img39.imageshack.us/img39/6619/vlcsnap2012010715h51m30.png[/img]
[img]http://img849.imageshack.us/img849/1307/vlcsnap2012010715h51m46.png[/img]


[img]http://img851.imageshack.us/img851/5503/26ks.jpg[/img]#
Thank you smallz for banner!